REM MD5 07018cba7a4877b63d948e0492675ee4
FILE "World Cup Golf - Professional Edition (Germany).bin" BINARY
  TRACK 01 MODE2/2352
    INDEX 01 00:00:00
  TRACK 02 AUDIO
    INDEX 00 58:31:06
    INDEX 01 58:33:06
  TRACK 03 AUDIO
    INDEX 00 61:20:30
    INDEX 01 61:22:30
REM LEADOUT 63:51:45
